<svg width="8" height="8" viewBox="0 0 8 8" fill="none" xmlns="http://www.w3.org/2000/svg">
<path d="M4.00033 7.33333C4.13839 7.33333 4.25033 7.2214 4.25033 7.08333V6.58333C4.25033 6.44526 4.13839 6.33333 4.00033 6.33333C3.86226 6.33333 3.75033 6.44526 3.75033 6.58333V7.08333C3.75033 7.2214 3.86226 7.33333 4.00033 7.33333ZM5.66699 4C5.66699 3.07953 4.92079 2.33333 4.00033 2.33333C3.07985 2.33333 2.33366 3.07953 2.33366 4C2.33366 4.92047 3.07985 5.66666 4.00033 5.66666C4.92079 5.66666 5.66699 4.92047 5.66699 4ZM7.08366 3.75C7.22172 3.75 7.33366 3.86193 7.33366 4C7.33366 4.13806 7.22172 4.24999 7.08366 4.24999H6.58366C6.44559 4.24999 6.33366 4.13806 6.33366 4C6.33366 3.86193 6.44559 3.75 6.58366 3.75H7.08366ZM4.00033 1.66666C4.13839 1.66666 4.25033 1.55473 4.25033 1.41666V0.916662C4.25033 0.778595 4.13839 0.666662 4.00033 0.666662C3.86226 0.666662 3.75033 0.778595 3.75033 0.916662V1.41666C3.75033 1.55473 3.86226 1.66666 4.00033 1.66666ZM1.41699 3.75C1.55506 3.75 1.66699 3.86193 1.66699 4C1.66699 4.13806 1.55506 4.24999 1.41699 4.24999H0.916992C0.778922 4.24999 0.666992 4.13806 0.666992 4C0.666992 3.86193 0.778922 3.75 0.916992 3.75H1.41699ZM1.40688 6.59332C1.50451 6.69095 1.66281 6.69095 1.76044 6.59332L2.26044 6.09332C2.35807 5.99568 2.35807 5.83739 2.26044 5.73976C2.16281 5.64213 2.00451 5.64213 1.90688 5.73976L1.40688 6.23976C1.30925 6.33739 1.30925 6.49568 1.40688 6.59332ZM1.76044 1.40643C1.66281 1.30879 1.50451 1.30879 1.40688 1.40643C1.30925 1.50406 1.30925 1.66236 1.40688 1.76L1.90688 2.26C2.00451 2.35763 2.16281 2.35763 2.26044 2.26C2.35807 2.16236 2.35807 2.00406 2.26044 1.90643L1.76044 1.40643ZM6.59376 6.59332C6.49613 6.69095 6.33786 6.69095 6.24023 6.59332L5.74023 6.09332C5.64259 5.99568 5.64259 5.83739 5.74023 5.73976C5.83786 5.64213 5.99613 5.64213 6.09376 5.73976L6.59376 6.23976C6.69139 6.33739 6.69139 6.49568 6.59376 6.59332ZM6.24023 1.40643C6.33786 1.30879 6.49613 1.30879 6.59376 1.40643C6.69139 1.50406 6.69139 1.66236 6.59376 1.76L6.09376 2.26C5.99613 2.35763 5.83786 2.35763 5.74023 2.26C5.64259 2.16236 5.64259 2.00406 5.74023 1.90643L6.24023 1.40643Z" fill="#222A30"/>
</svg>
