<svg width="29" height="33" viewBox="0 0 29 33" fill="none" xmlns="http://www.w3.org/2000/svg">
<path d="M9.53906 18.5625H6.96094C6.53555 18.5625 6.1875 18.2145 6.1875 17.7891V15.2109C6.1875 14.7855 6.53555 14.4375 6.96094 14.4375H9.53906C9.96445 14.4375 10.3125 14.7855 10.3125 15.2109V17.7891C10.3125 18.2145 9.96445 18.5625 9.53906 18.5625ZM16.5 17.7891V15.2109C16.5 14.7855 16.152 14.4375 15.7266 14.4375H13.1484C12.723 14.4375 12.375 14.7855 12.375 15.2109V17.7891C12.375 18.2145 12.723 18.5625 13.1484 18.5625H15.7266C16.152 18.5625 16.5 18.2145 16.5 17.7891ZM22.6875 17.7891V15.2109C22.6875 14.7855 22.3395 14.4375 21.9141 14.4375H19.3359C18.9105 14.4375 18.5625 14.7855 18.5625 15.2109V17.7891C18.5625 18.2145 18.9105 18.5625 19.3359 18.5625H21.9141C22.3395 18.5625 22.6875 18.2145 22.6875 17.7891ZM16.5 23.9766V21.3984C16.5 20.973 16.152 20.625 15.7266 20.625H13.1484C12.723 20.625 12.375 20.973 12.375 21.3984V23.9766C12.375 24.402 12.723 24.75 13.1484 24.75H15.7266C16.152 24.75 16.5 24.402 16.5 23.9766ZM10.3125 23.9766V21.3984C10.3125 20.973 9.96445 20.625 9.53906 20.625H6.96094C6.53555 20.625 6.1875 20.973 6.1875 21.3984V23.9766C6.1875 24.402 6.53555 24.75 6.96094 24.75H9.53906C9.96445 24.75 10.3125 24.402 10.3125 23.9766ZM22.6875 23.9766V21.3984C22.6875 20.973 22.3395 20.625 21.9141 20.625H19.3359C18.9105 20.625 18.5625 20.973 18.5625 21.3984V23.9766C18.5625 24.402 18.9105 24.75 19.3359 24.75H21.9141C22.3395 24.75 22.6875 24.402 22.6875 23.9766ZM28.875 7.21875V29.9062C28.875 31.6143 27.4893 33 25.7812 33H3.09375C1.38574 33 0 31.6143 0 29.9062V7.21875C0 5.51074 1.38574 4.125 3.09375 4.125H6.1875V0.773438C6.1875 0.348047 6.53555 0 6.96094 0H9.53906C9.96445 0 10.3125 0.348047 10.3125 0.773438V4.125H18.5625V0.773438C18.5625 0.348047 18.9105 0 19.3359 0H21.9141C22.3395 0 22.6875 0.348047 22.6875 0.773438V4.125H25.7812C27.4893 4.125 28.875 5.51074 28.875 7.21875ZM25.7812 29.5195V10.3125H3.09375V29.5195C3.09375 29.7322 3.26777 29.9062 3.48047 29.9062H25.3945C25.6072 29.9062 25.7812 29.7322 25.7812 29.5195Z" fill="black"/>
</svg>
