<svg xmlns="http://www.w3.org/2000/svg" fill="none" viewBox="0 0 40 40">
  <rect width="40" height="40" fill="#000000" rx="20"/>
  <path fill="#ffffff" d="M28.7 18.45v-1.07h-2.025v1.07h-.515v8.217h4.698V18.45h-2.157Zm-1.588 6.67h-.53V23.9h.53v1.22Zm0-1.669h-.53v-1.222h.53v1.222Zm0-1.67h-.53V20.56h.53v1.221Zm0-1.67h-.53v-1.22h.53v1.22Zm.832 5.01h-.531v-1.222h.53v1.221Zm0-1.67h-.531v-1.222h.53v1.222Zm0-1.67h-.531V20.56h.53v1.221Zm0-1.67h-.531v-1.22h.53v1.22Zm.83 5.01h-.53v-1.222h.53v1.221Zm0-1.67h-.53v-1.222h.53v1.222Zm0-1.67h-.53V20.56h.53v1.221Zm0-1.67h-.53v-1.22h.53v1.22Zm.832 5.01h-.53v-1.222h.53v1.221Zm0-1.67h-.53v-1.222h.53v1.222Zm0-1.67h-.53V20.56h.53v1.221Zm0-1.67h-.53v-1.22h.53v1.22Zm.831 5.01h-.53v-1.222h.53v1.221Zm0-1.67h-.53v-1.222h.53v1.222Zm0-1.67h-.53V20.56h.53v1.221Zm0-1.67h-.53v-1.22h.53v1.22ZM24.788 24.959V22.96h-.498v-10.86h-.385v-1.16h-.454V10.2h-.378l-.281-2.096v-.218h-.207l-.026-2.006h-.049l-.025 2.006h-.208v.218l-.28 2.096h-.378v.741h-.453v1.16h-.386v10.86h-.498v1.998h-.372v1.708h5.25v-1.708h-.372ZM15.563 13.303v13.364h3.349V13.303h-3.35Zm.82 11.5h-.455v-1.015h.456v1.016Zm0-1.449h-.455V22.34h.456v1.015Zm0-1.449h-.455V20.89h.456v1.015Zm0-1.449h-.455V19.44h.456v1.016Zm0-1.449h-.455v-1.016h.456v1.016Zm0-1.449h-.455v-1.016h.456v1.016Zm0-1.45h-.455v-1.015h.456v1.016Zm0-1.448h-.455v-1.016h.456v1.016Zm.722 10.144h-.456v-1.016h.456v1.016Zm0-1.45h-.456V22.34h.456v1.015Zm0-1.449h-.456V20.89h.456v1.015Zm0-1.449h-.456V19.44h.456v1.016Zm0-1.449h-.456v-1.016h.456v1.016Zm0-1.449h-.456v-1.016h.456v1.016Zm0-1.45h-.456v-1.015h.456v1.016Zm0-1.448h-.456v-1.016h.456v1.016Zm.72 10.144h-.455v-1.016h.456v1.016Zm0-1.45h-.455V22.34h.456v1.015Zm0-1.449h-.455V20.89h.456v1.015Zm0-1.449h-.455V19.44h.456v1.016Zm0-1.449h-.455v-1.016h.456v1.016Zm0-1.449h-.455v-1.016h.456v1.016Zm0-1.45h-.455v-1.015h.456v1.016Zm0-1.448h-.455v-1.016h.456v1.016Zm.722 10.144h-.456v-1.016h.456v1.016Zm0-1.45h-.456V22.34h.456v1.015Zm0-1.449h-.456V20.89h.456v1.015Zm0-1.449h-.456V19.44h.456v1.016Zm0-1.449h-.456v-1.016h.456v1.016Zm0-1.449h-.456v-1.016h.456v1.016Zm0-1.45h-.456v-1.015h.456v1.016Zm0-1.448h-.456v-1.016h.456v1.016ZM13.979 16.54v-2.133h-1.833v-.771h-1.31v.77h-.496v12.26h4.221V16.54h-.582Z"/>
</svg>