<svg xmlns="http://www.w3.org/2000/svg" aria-hidden="true" overflow="hidden" style="position:absolute;width:0;height:0">
  <defs>
    <symbol id="icon-checkbox" viewBox="0 0 32 32">
      <path fill="none" stroke-linecap="round" stroke-linejoin="round" stroke-width="2" d="M29.334 9.333 16.001 22.666l-.833-.833M9.334 16v0zM2.666 16l6.667 6.667L22.666 9.334"/>
    </symbol>
    <symbol id="icon-select-toggle" viewBox="0 0 32 32">
      <path fill="none" stroke-linecap="round" stroke-linejoin="round" stroke-width="2" d="m24.667 12-8 8-8-8"/>
    </symbol>
    <symbol id="icon-calendar" viewBox="0 0 30 32">
      <path fill="none" stroke-linecap="round" stroke-linejoin="round" stroke-width="1.882" d="M26.352 5.961H3.764c-.693 0-1.255.562-1.255 1.255v20.078c0 .693.562 1.255 1.255 1.255h22.588c.693 0 1.255-.562 1.255-1.255V7.216c0-.693-.562-1.255-1.255-1.255zM2.509 13.49h25.098M2.509 21.02h25.098M10.667 3.451v5.02M19.45 3.451v5.02M10.667 13.49v15.059M19.45 13.49v15.059M27.608 9.098v16.314M2.509 9.098v16.314M8.785 28.549h12.549"/>
    </symbol>
    <symbol id="icon-close" viewBox="0 0 32 32">
      <path fill="none" stroke-linejoin="round" stroke-width="2" d="M16 29.333c7.364 0 13.333-5.97 13.333-13.333S23.363 2.667 16 2.667 2.667 8.637 2.667 16c0 7.364 5.97 13.333 13.333 13.333z"/>
      <path stroke-linecap="round" stroke-linejoin="round" stroke-width="2" d="m19.771 12.229-7.543 7.543M12.229 12.229l7.543 7.543"/>
    </symbol>
    <symbol id="icon-copy" viewBox="0 0 31 32">
      <path fill="none" stroke-linecap="round" stroke-linejoin="round" stroke-width="1.939" d="M8.406 8.223V5.237c0-1.004.814-1.818 1.818-1.818h15.758c1.004 0 1.818.814 1.818 1.818v15.758a1.818 1.818 0 0 1-1.818 1.818h-3.02"/>
      <path fill="none"  stroke-linejoin="round" stroke-width="1.939" d="M20.806 8.59H5.048a1.818 1.818 0 0 0-1.818 1.818v15.758c0 1.004.814 1.818 1.818 1.818h15.758a1.818 1.818 0 0 0 1.818-1.818V10.408a1.818 1.818 0 0 0-1.818-1.818z"/>
    </symbol>
    <symbol id="icon-link" viewBox="0 0 32 32">
      <path fill="none"  stroke-linecap="round" stroke-linejoin="round" stroke-width="2.667" d="M18.667 4H28v9.333M28 19.649V26a2 2 0 0 1-2 2H6a2 2 0 0 1-2-2V6a2 2 0 0 1 2-2h6M17.201 14.8l10.2-10.2"/>
    </symbol>
    <symbol id="icon-local" viewBox="0 0 30 32">
      <path fill="none" stroke-linejoin="round" stroke-width="1.882" d="M15.059 28.549s9.412-7.529 9.412-15.686a9.412 9.412 0 0 0-18.824 0c0 8.157 9.412 15.686 9.412 15.686z"/>
      <path fill="none" stroke-linejoin="round" stroke-width="1.882" d="M15.059 16.627a3.765 3.765 0 1 0 0-7.53 3.765 3.765 0 0 0 0 7.53z"/>
    </symbol>
    <symbol id="icon-time" viewBox="0 0 30 32">
      <path fill="none" stroke-linejoin="round" stroke-width="1.882" d="M15.058 28.549c6.931 0 12.549-5.618 12.549-12.549S21.989 3.451 15.058 3.451C8.127 3.451 2.509 9.069 2.509 16s5.618 12.549 12.549 12.549z"/>
      <path fill="none" stroke-linecap="round" stroke-linejoin="round" stroke-width="1.882" d="m15.063 8.471-.001 7.535 5.32 5.32"/>
    </symbol>
    
  </defs>
</svg>