<svg xmlns="http://www.w3.org/2000/svg" fill="none" viewBox="0 0 24 24">
  <path fill="#000" fill-opacity=".1" d="M-6308-2510h25862v-2H-6308v2Zm25863 1v19061h2V-2509h-2Zm-1 19062H-6308v2h25862v-2Zm-25863-1V-2509h-2v19061h2Zm1 1c-.55 0-1-.4-1-1h-2c0 1.7 1.34 3 3 3v-2Zm25863-1c0 .6-.4 1-1 1v2c1.7 0 3-1.3 3-3h-2Zm-1-19062c.6 0 1 .45 1 1h2c0-1.66-1.3-3-3-3v2Zm-25862-2c-1.66 0-3 1.34-3 3h2c0-.55.45-1 1-1v-2Z"/>
  <path fill="#fff" d="M-1442-2155h2860v4242h-2860z"/>
  <g stroke="#131313" stroke-linecap="round" stroke-linejoin="round" stroke-width="2">
    <path d="M2 12s3-7 10-7 10 7 10 7-3 7-10 7-10-7-10-7Z"/>
    <path d="M12 15a3 3 0 1 0 0-6 3 3 0 0 0 0 6Z"/>
  </g>
</svg>
