<svg width="20" height="16" viewBox="0 0 20 16" fill="none" xmlns="http://www.w3.org/2000/svg">
<g id="Flags">
<g clip-path="url(#clip0_719_10291)">
<rect width="20" height="16" rx="4" fill="#1A47B8"/>
<path id="Vector" fill-rule="evenodd" clip-rule="evenodd" d="M2.12759 0H0V2.66667L17.8609 16L20 16V13.3333L2.12759 0Z" fill="white"/>
<path id="Vector_2" d="M0.709618 0L20 14.4378V16H19.307L0 1.54726V0H0.709618Z" fill="#F93939"/>
<path id="Vector_3" fill-rule="evenodd" clip-rule="evenodd" d="M18.0952 1.52588e-05H20V2.66668C20 2.66668 7.62839 11.5499 1.90476 16H0V13.3333L18.0952 1.52588e-05Z" fill="white"/>
<path id="Vector_4" d="M20 0H19.3541L0 14.4502V16H0.709618L20 1.55895V0Z" fill="#F93939"/>
<path id="Vector_5" fill-rule="evenodd" clip-rule="evenodd" d="M7.27341 0H12.7432V4.93527H20V11.0615H12.7432V16H7.27341V11.0615H0V4.93527H7.27341V0Z" fill="white"/>
<path id="Vector_6" fill-rule="evenodd" clip-rule="evenodd" d="M8.42105 0H11.5789V6.15385H20V9.84615H11.5789V16H8.42105V9.84615H0V6.15385H8.42105V0Z" fill="#F93939"/>
</g>
</g>
<defs>
<clipPath id="clip0_719_10291">
<rect width="20" height="16" rx="4" fill="white"/>
</clipPath>
</defs>
</svg>
