<svg width="16" height="16" viewBox="0 0 16 16" fill="none" xmlns="http://www.w3.org/2000/svg">
<rect width="16" height="16" rx="8" fill="black"/>
<path d="M11.4811 7.38022V6.95193H10.6709V7.38022H10.4648V10.6666H12.3441V7.38022H11.4811ZM10.8456 10.0481H10.6335V9.55964H10.8456V10.0481ZM10.8456 9.38038H10.6335V8.89173H10.8456V9.38038ZM10.8456 8.71238H10.6335V8.2239H10.8456V8.71238ZM10.8456 8.04439H10.6335V7.55607H10.8456V8.04439ZM11.1783 10.0481H10.966V9.55964H11.1783V10.0481ZM11.1783 9.38038H10.966V8.89173H11.1783V9.38038ZM11.1783 8.71238H10.966V8.2239H11.1783V8.71238ZM11.1783 8.04439H10.966V7.55607H11.1783V8.04439ZM11.5106 10.0481H11.2983V9.55964H11.5106V10.0481ZM11.5106 9.38038H11.2983V8.89173H11.5106V9.38038ZM11.5106 8.71238H11.2983V8.2239H11.5106V8.71238ZM11.5106 8.04439H11.2983V7.55607H11.5106V8.04439ZM11.8433 10.0481H11.6309V9.55964H11.8433V10.0481ZM11.8433 9.38038H11.6309V8.89173H11.8433V9.38038ZM11.8433 8.71238H11.6309V8.2239H11.8433V8.71238ZM11.8433 8.04439H11.6309V7.55607H11.8433V8.04439ZM12.1757 10.0481H11.9632V9.55964H12.1757V10.0481ZM12.1757 9.38038H11.9632V8.89173H12.1757V9.38038ZM12.1757 8.71238H11.9632V8.2239H12.1757V8.71238ZM12.1757 8.04439H11.9632V7.55607H12.1757V8.04439Z" fill="white"/>
<path d="M9.91614 9.98352V9.1844H9.71668V4.84036H9.56261V4.37641H9.38136V4.07991H9.22994L9.11759 3.2418H9.11792V3.15424H9.03465L9.02442 2.35205H9.00498L8.99484 3.15424H8.91174V3.2418L8.79963 4.07991H8.64854V4.37641H8.46704V4.84036H8.31272V9.1844H8.11352V9.98352H7.96484V10.6666H10.0647V9.98352H9.91614Z" fill="white"/>
<path d="M6.22363 5.32104V10.6667H7.56344V5.32104H6.22363ZM6.55214 9.92143H6.36981V9.51509H6.55214V9.92143ZM6.55214 9.34173H6.36981V8.9354H6.55214V9.34173ZM6.55214 8.76212H6.36981V8.35579H6.55214V8.76212ZM6.55214 8.18243H6.36981V7.7761H6.55214V8.18243ZM6.55214 7.60282H6.36981V7.1964H6.55214V7.60282ZM6.55214 7.02321H6.36981V6.61679H6.55214V7.02321ZM6.55214 6.44352H6.36981V6.03718H6.55214V6.44352ZM6.55214 5.86382H6.36981V5.45749H6.55214V5.86382ZM6.84043 9.92143H6.65827V9.51509H6.84043V9.92143ZM6.84043 9.34173H6.65827V8.9354H6.84043V9.34173ZM6.84043 8.76212H6.65827V8.35579H6.84043V8.76212ZM6.84043 8.18243H6.65827V7.7761H6.84043V8.18243ZM6.84043 7.60282H6.65827V7.1964H6.84043V7.60282ZM6.84043 7.02321H6.65827V6.61679H6.84043V7.02321ZM6.84043 6.44352H6.65827V6.03718H6.84043V6.44352ZM6.84043 5.86382H6.65827V5.45749H6.84043V5.86382ZM7.12897 9.92143H6.94664V9.51509H7.12897V9.92143ZM7.12897 9.34173H6.94664V8.9354H7.12897V9.34173ZM7.12897 8.76212H6.94664V8.35579H7.12897V8.76212ZM7.12897 8.18243H6.94664V7.7761H7.12897V8.18243ZM7.12897 7.60282H6.94664V7.1964H7.12897V7.60282ZM7.12897 7.02321H6.94664V6.61679H7.12897V7.02321ZM7.12897 6.44352H6.94664V6.03718H7.12897V6.44352ZM7.12897 5.86382H6.94664V5.45749H7.12897V5.86382ZM7.41726 9.92143H7.2351V9.51509H7.41726V9.92143ZM7.41726 9.34173H7.2351V8.9354H7.41726V9.34173ZM7.41726 8.76212H7.2351V8.35579H7.41726V8.76212ZM7.41726 8.18243H7.2351V7.7761H7.41726V8.18243ZM7.41726 7.60282H7.2351V7.1964H7.41726V7.60282ZM7.41726 7.02321H7.2351V6.61679H7.41726V7.02321ZM7.41726 6.44352H7.2351V6.03718H7.41726V6.44352ZM7.41726 5.86382H7.2351V5.45749H7.41726V5.86382Z" fill="white"/>
<path d="M5.59229 6.61606V5.76273H4.85906V5.45435H4.33526V5.76273H4.13672V10.6666H4.15018H5.59229H5.82523V6.61606H5.59229Z" fill="white"/>
</svg>
