<svg xmlns="http://www.w3.org/2000/svg" fill="none" viewBox="0 0 29 33">
  <path fill="currentColor" d="M28.875 7.219v22.687A3.095 3.095 0 0 1 25.781 33H3.094A3.095 3.095 0 0 1 0 29.906V7.22a3.095 3.095 0 0 1 3.094-3.094h3.094V.773c0-.425.348-.773.773-.773h2.578c.425 0 .774.348.774.773v3.352h8.25V.773c0-.425.348-.773.773-.773h2.578c.425 0 .773.348.773.773v3.352h3.094a3.095 3.095 0 0 1 3.094 3.094Zm-3.094 22.3V10.314H3.094v19.206c0 .213.174.387.386.387h21.915a.388.388 0 0 0 .386-.386Z"/>
  <path stroke="currentColor" stroke-linecap="round" stroke-width="3" d="M7 16.5h15M7 23h15"/>
</svg>