<svg width="16" height="12" viewBox="0 0 16 12" fill="none" xmlns="http://www.w3.org/2000/svg">
<path fill-rule="evenodd" clip-rule="evenodd"  d="M15.66 0.55417C15.8163 0.710443 15.904 0.922366 15.904 1.14334C15.904 1.36431 15.8163 1.57623 15.66 1.7325L6.2917 11.1017C6.20658 11.1868 6.10551 11.2544 5.99426 11.3005C5.88302 11.3466 5.76379 11.3703 5.64337 11.3703C5.52296 11.3703 5.40372 11.3466 5.29248 11.3005C5.18124 11.2544 5.08016 11.1868 4.99504 11.1017L0.340039 6.44667C0.262614 6.36925 0.201196 6.27733 0.159294 6.17617C0.117392 6.07501 0.0958252 5.96658 0.0958252 5.85709C0.0958252 5.74759 0.117392 5.63917 0.159294 5.53801C0.201196 5.43684 0.262614 5.34493 0.340039 5.2675C0.417464 5.19008 0.509381 5.12866 0.610542 5.08676C0.711703 5.04486 0.820126 5.02329 0.929622 5.02329C1.03912 5.02329 1.14754 5.04486 1.2487 5.08676C1.34986 5.12866 1.44178 5.19008 1.51921 5.2675L5.6442 9.3925L14.4809 0.55417C14.6371 0.397944 14.8491 0.310181 15.07 0.310181C15.291 0.310181 15.5038 0.397944 15.66 0.55417Z" />
</svg>
