<svg xmlns="http://www.w3.org/2000/svg" fill="none" viewBox="0 0 29 33">
  <path fill="currentColor" d="M9.54 18.563H6.96a.776.776 0 0 1-.772-.774v-2.578c0-.425.348-.774.773-.774h2.578c.425 0 .774.349.774.774v2.578a.776.776 0 0 1-.774.773Zm6.96-.774v-2.578a.776.776 0 0 0-.773-.774h-2.579a.776.776 0 0 0-.773.774v2.578c0 .425.348.773.773.773h2.579a.776.776 0 0 0 .773-.773Zm6.188 0v-2.578a.776.776 0 0 0-.774-.774h-2.578a.776.776 0 0 0-.773.774v2.578c0 .425.348.773.773.773h2.578a.776.776 0 0 0 .773-.773ZM16.5 23.977v-2.579a.776.776 0 0 0-.773-.773h-2.579a.776.776 0 0 0-.773.773v2.579c0 .425.348.773.773.773h2.579a.776.776 0 0 0 .773-.773Zm-6.188 0v-2.579a.776.776 0 0 0-.773-.773H6.961a.776.776 0 0 0-.774.773v2.579c0 .425.349.773.774.773h2.578a.776.776 0 0 0 .774-.773Zm12.376 0v-2.579a.776.776 0 0 0-.774-.773h-2.578a.776.776 0 0 0-.773.773v2.579c0 .425.348.773.773.773h2.578a.776.776 0 0 0 .773-.773Zm6.187-16.758v22.687A3.095 3.095 0 0 1 25.781 33H3.094A3.095 3.095 0 0 1 0 29.906V7.22a3.095 3.095 0 0 1 3.094-3.094h3.094V.773c0-.425.348-.773.773-.773h2.578c.425 0 .774.348.774.773v3.352h8.25V.773c0-.425.348-.773.773-.773h2.578c.425 0 .773.348.773.773v3.352h3.094a3.095 3.095 0 0 1 3.094 3.094Zm-3.094 22.3V10.314H3.094v19.206c0 .213.174.387.386.387h21.915a.388.388 0 0 0 .386-.386Z"/>
</svg>


