<svg xmlns="http://www.w3.org/2000/svg" fill="none" viewBox="0 0 30 30">
  <path stroke="currentColor" stroke-linecap="round" stroke-linejoin="round" stroke-width="3" d="M21.25 22.5a2.5 2.5 0 0 0-2.5-2.5h-7.5a2.5 2.5 0 0 0-2.5 2.5"/>
  <path stroke="currentColor" stroke-linecap="round" stroke-linejoin="round" stroke-width="3" d="M23.75 5H6.25a2.5 2.5 0 0 0-2.5 2.5V25a2.5 2.5 0 0 0 2.5 2.5h17.5a2.5 2.5 0 0 0 2.5-2.5V7.5a2.5 2.5 0 0 0-2.5-2.5Z"/>
  <path stroke="currentColor" stroke-linecap="round" stroke-linejoin="round" stroke-width="3" d="M15 15a2.5 2.5 0 1 0 0-5 2.5 2.5 0 0 0 0 5ZM10 2.5V5M20 2.5V5"/>
</svg>