<svg xmlns="http://www.w3.org/2000/svg" fill="none" viewBox="0 0 26 30">
  <path fill="currentColor" stroke="currentColor" d="M22 10h-1V9A8 8 0 0 0 5 9v1H4a3 3 0 0 0-3 3v13a3 3 0 0 0 3 3h18a3 3 0 0 0 3-3V13a3 3 0 0 0-3-3ZM7 9a6 6 0 1 1 12 0v1H7V9Zm16 17a1 1 0 0 1-1 1H4a1 1 0 0 1-1-1V13a1 1 0 0 1 1-1h18a1 1 0 0 1 1 1v13Z"/>
  <path fill="currentColor" stroke="currentColor" d="M13 14a2.82 2.82 0 0 0-1.933.78 3.424 3.424 0 0 0-1.024 1.982c-.12.774.011 1.57.37 2.247.357.678.92 1.192 1.587 1.453v2.427c0 .295.105.577.293.786A.953.953 0 0 0 13 24c.265 0 .52-.117.707-.325.188-.209.293-.491.293-.786v-2.427c.667-.26 1.23-.775 1.588-1.453a3.64 3.64 0 0 0 .369-2.247 3.424 3.424 0 0 0-1.024-1.981A2.82 2.82 0 0 0 13 14Zm0 4.444a.93.93 0 0 1-.556-.187 1.094 1.094 0 0 1-.368-.498 1.226 1.226 0 0 1-.057-.642c.038-.216.134-.414.274-.57a.974.974 0 0 1 .512-.303.908.908 0 0 1 .578.063c.183.084.339.226.449.409a1.2 1.2 0 0 1 .168.617c0 .295-.105.578-.293.786a.953.953 0 0 1-.707.325Z"/>
</svg>