<svg xmlns="http://www.w3.org/2000/svg" viewBox="0 0 22 20">
  <path
    opacity="1"
    d="M19.6737 0C19.0776 0 18.4834 0.212292 18.0293 0.624987L17.6406 0.97824L20.9295 3.96731C20.9276 3.96901 21.3182 3.61406 21.3182 3.61406C22.2282 2.78697 22.2263 1.45038 21.3182 0.624987C20.8622 0.212292 20.2699 0 19.6737 0ZM16.9081 1.75268C16.7997 1.76627 16.6988 1.81552 16.6241 1.88855L1.10671 16.0051C1.04504 16.0561 0.998325 16.1223 0.972163 16.1953L0.0154073 19.4561C-0.0275721 19.6056 0.0210134 19.7635 0.140608 19.8722C0.260202 19.9809 0.433988 20.0251 0.59843 19.986L4.18626 19.1164C4.26662 19.0927 4.33949 19.0502 4.39555 18.9942L19.9279 4.8912C20.1185 4.72307 20.1204 4.44624 19.9354 4.27301C19.7504 4.09978 19.4458 4.09808 19.2552 4.26622L3.81253 18.3013L1.86912 16.535L17.3118 2.49995C17.4556 2.37427 17.4986 2.17896 17.4183 2.01253C17.3379 1.84609 17.1529 1.74249 16.953 1.75268C16.938 1.75268 16.9231 1.75268 16.9081 1.75268Z"
  />
</svg>
 