<svg width="40" height="40" viewBox="0 0 40 40" fill="none" xmlns="http://www.w3.org/2000/svg">
<rect width="40" height="40" rx="20" fill="white"/>
<path d="M28.7018 18.4506V17.3799H26.6764V18.4506H26.1611V26.6667H30.8592V18.4506H28.7018ZM27.1131 25.1204H26.5829V23.8991H27.1131V25.1204ZM27.1131 23.451H26.5829V22.2294H27.1131V23.451ZM27.1131 21.781H26.5829V20.5598H27.1131V21.781ZM27.1131 20.111H26.5829V18.8902H27.1131V20.111ZM27.9448 25.1204H27.4139V23.8991H27.9448V25.1204ZM27.9448 23.451H27.4139V22.2294H27.9448V23.451ZM27.9448 21.781H27.4139V20.5598H27.9448V21.781ZM27.9448 20.111H27.4139V18.8902H27.9448V20.111ZM28.7756 25.1204H28.2448V23.8991H28.7756V25.1204ZM28.7756 23.451H28.2448V22.2294H28.7756V23.451ZM28.7756 21.781H28.2448V20.5598H28.7756V21.781ZM28.7756 20.111H28.2448V18.8902H28.7756V20.111ZM29.6073 25.1204H29.0762V23.8991H29.6073V25.1204ZM29.6073 23.451H29.0762V22.2294H29.6073V23.451ZM29.6073 21.781H29.0762V20.5598H29.6073V21.781ZM29.6073 20.111H29.0762V18.8902H29.6073V20.111ZM30.4383 25.1204H29.9071V23.8991H30.4383V25.1204ZM30.4383 23.451H29.9071V22.2294H30.4383V23.451ZM30.4383 21.781H29.9071V20.5598H30.4383V21.781ZM30.4383 20.111H29.9071V18.8902H30.4383V20.111Z" fill="black"/>
<path d="M24.7894 24.9588V22.961H24.2907V12.1009H23.9055V10.941H23.4524V10.1998H23.0739L22.793 8.10449H22.7938V7.88561H22.5856L22.5601 5.88013H22.5115L22.4861 7.88561H22.2784V8.10449L21.9981 10.1998H21.6204V10.941H21.1666V12.1009H20.7808V22.961H20.2828V24.9588H19.9111V26.6666H25.1608V24.9588H24.7894Z" fill="black"/>
<path d="M15.5615 13.3026V26.6667H18.911V13.3026H15.5615ZM16.3828 24.8036H15.927V23.7877H16.3828V24.8036ZM16.3828 23.3543H15.927V22.3385H16.3828V23.3543ZM16.3828 21.9053H15.927V20.8895H16.3828V21.9053ZM16.3828 20.4561H15.927V19.4402H16.3828V20.4561ZM16.3828 19.007H15.927V17.991H16.3828V19.007ZM16.3828 17.558H15.927V16.542H16.3828V17.558ZM16.3828 16.1088H15.927V15.093H16.3828V16.1088ZM16.3828 14.6596H15.927V13.6437H16.3828V14.6596ZM17.1035 24.8036H16.6481V23.7877H17.1035V24.8036ZM17.1035 23.3543H16.6481V22.3385H17.1035V23.3543ZM17.1035 21.9053H16.6481V20.8895H17.1035V21.9053ZM17.1035 20.4561H16.6481V19.4402H17.1035V20.4561ZM17.1035 19.007H16.6481V17.991H17.1035V19.007ZM17.1035 17.558H16.6481V16.542H17.1035V17.558ZM17.1035 16.1088H16.6481V15.093H17.1035V16.1088ZM17.1035 14.6596H16.6481V13.6437H17.1035V14.6596ZM17.8249 24.8036H17.369V23.7877H17.8249V24.8036ZM17.8249 23.3543H17.369V22.3385H17.8249V23.3543ZM17.8249 21.9053H17.369V20.8895H17.8249V21.9053ZM17.8249 20.4561H17.369V19.4402H17.8249V20.4561ZM17.8249 19.007H17.369V17.991H17.8249V19.007ZM17.8249 17.558H17.369V16.542H17.8249V17.558ZM17.8249 16.1088H17.369V15.093H17.8249V16.1088ZM17.8249 14.6596H17.369V13.6437H17.8249V14.6596ZM18.5456 24.8036H18.0902V23.7877H18.5456V24.8036ZM18.5456 23.3543H18.0902V22.3385H18.5456V23.3543ZM18.5456 21.9053H18.0902V20.8895H18.5456V21.9053ZM18.5456 20.4561H18.0902V19.4402H18.5456V20.4561ZM18.5456 19.007H18.0902V17.991H18.5456V19.007ZM18.5456 17.558H18.0902V16.542H18.5456V17.558ZM18.5456 16.1088H18.0902V15.093H18.5456V16.1088ZM18.5456 14.6596H18.0902V13.6437H18.5456V14.6596Z" fill="black"/>
<path d="M13.9788 16.5402V14.4068H12.1457V13.6359H10.8362V14.4068H10.3398V26.6665H10.3735H13.9788H14.5611V16.5402H13.9788Z" fill="black"/>
</svg>
