<svg xmlns="http://www.w3.org/2000/svg" fill="none" viewBox="0 0 22 20">
  <path fill="currentColor" d="M19.674 0c-.596 0-1.19.212-1.645.625l-.388.353 3.289 2.99.388-.354c.91-.827.908-2.164 0-2.989A2.45 2.45 0 0 0 19.674 0Zm-2.766 1.753a.497.497 0 0 0-.284.136L1.107 16.005a.442.442 0 0 0-.135.19l-.957 3.261a.407.407 0 0 0 .126.416.51.51 0 0 0 .457.114l3.588-.87a.495.495 0 0 0 .21-.122L19.928 4.891a.41.41 0 0 0 .007-.618.516.516 0 0 0-.68-.007L3.813 18.301l-1.944-1.766L17.312 2.5a.407.407 0 0 0 .106-.487.485.485 0 0 0-.465-.26h-.045Z"/>
</svg>
