<svg xmlns="http://www.w3.org/2000/svg" fill="none" viewBox="0 0 57 56">
  <path fill="#7E8492" d="M47.75 9.188H9.25a3.062 3.062 0 0 0-3.063 3.062v31.5a3.062 3.062 0 0 0 3.063 3.063h38.5a3.063 3.063 0 0 0 3.063-3.063v-31.5a3.063 3.063 0 0 0-3.063-3.063Zm-38.5 2.624h38.5a.438.438 0 0 1 .438.438v24.828l-7.022-7.022a3.085 3.085 0 0 0-4.332 0l-4.528 4.528a.416.416 0 0 1-.612 0l-9.778-9.778a3.084 3.084 0 0 0-4.332 0l-8.771 8.772V12.25a.438.438 0 0 1 .437-.438Zm38.5 32.376H9.25a.438.438 0 0 1-.438-.438v-6.453l10.632-10.631a.417.417 0 0 1 .612 0l9.778 9.778a3.085 3.085 0 0 0 4.332 0l4.528-4.528a.416.416 0 0 1 .612 0l8.882 8.88v2.954a.438.438 0 0 1-.438.438Zm-14.678-20.76a2.164 2.164 0 0 1-.635-1.553 2.188 2.188 0 1 1 2.188 2.188 2.166 2.166 0 0 1-1.553-.635Z"/>
</svg>
