<svg xmlns="http://www.w3.org/2000/svg" fill="none" viewBox="0 0 23 17">
  <path fill="#406AB5" d="m12.248 2 3-.75v1.5l1.5 1.5h2.25V5l3 .75-.75 1.5.75 1.5h-.75l-.75 1.5-3.75 2.25.75 1.5 1.5-.75-.75 1.5-3 1.5v-.75l-1.5-.75V14l.75-1.5h-1.5l-.75 1.5-.75-.75-1.5 1.5h-.75l-.75-.75.75-1.5 1.5-1.5-3-3-2.25.75-.75.75h-3L.999 8l1.5-.75v-1.5l1.5-.75-.75-2.25L5.499 2l3.75 1.5.75-.75.75 1.5 1.5-2.25Z"/>
  <path fill="#FCDF65" d="m21.25 8.75-4.5 3.75.75 1.5 1.5-.75-.75 1.5-3 1.5v-.75l-1.5-.75V14l.75-1.5H13l-.75 1.5-.75-.75-1.5 1.5h-.75L8.5 14l.75-1.5 1.5-1.5-.75-.75-1.5-1.5h12.75Z"/>
  <mask id="a" fill="#fff">
    <path d="m22.088 7.25.583-1.165a.75.75 0 0 0-.49-1.063l-2.431-.608V4.25A.75.75 0 0 0 19 3.5h-1.94L16 2.439v-1.19a.75.75 0 0 0-.932-.727l-3 .75a.75.75 0 0 0-.442.312l-.783 1.174-.172-.344A.751.751 0 0 0 9.47 2.22l-.4.4-3.292-1.316a.755.755 0 0 0-.516-.015l-2.25.75a.75.75 0 0 0-.474.949l.544 1.633-.918.459a.75.75 0 0 0-.414.67v1.037l-1.086.543A.75.75 0 0 0 .33 8.335l.75 1.5a.75.75 0 0 0 .67.415h3a.75.75 0 0 0 .531-.22l.625-.625 1.642-.547L9.69 11l-.97.97a.748.748 0 0 0-.14.194l-.75 1.5a.75.75 0 0 0 .14.866l.75.75c.141.14.332.22.53.22H10a.75.75 0 0 0 .531-.22l.97-.97.22.22a.751.751 0 0 0 1.201-.195l.079-.159v.574c0 .284.16.543.414.67l1.086.543v.287a.75.75 0 0 0 1.085.67l3-1.5a.75.75 0 0 0 .336-.335l.75-1.5a.75.75 0 0 0-1.007-1.006l-.829.414-.104-.208 3.155-1.892a.75.75 0 0 0 .285-.308l.542-1.085H22a.75.75 0 0 0 .67-1.086l-.582-1.164Zm-1.51-.336a.75.75 0 0 0 0 .671l.268.533a.75.75 0 0 0-.267.296l-.652 1.305-3.563 2.138a.75.75 0 0 0-.285.978l.75 1.5c.04.08.093.15.155.21l-1.103.55a.75.75 0 0 0-.296-.266l-1.085-.543v-.11l.67-1.341a.75.75 0 0 0-.67-1.085H13a.75.75 0 0 0-.671.414l-.285.57-.014-.015a.75.75 0 0 0-1.06 0L9.69 14h-.13l-.148-.147.454-.908 1.414-1.414a.75.75 0 0 0 0-1.06l-3-3a.747.747 0 0 0-.768-.182l-2.25.75a.753.753 0 0 0-.292.181l-.53.53H2.212l-.207-.414.83-.415a.75.75 0 0 0 .414-.67V6.213l1.085-.543a.75.75 0 0 0 .376-.908L4.2 3.224l1.277-.426 3.495 1.398a.75.75 0 0 0 .81-.166l.013-.014.285.569a.75.75 0 0 0 1.295.08l1.34-2.008L14.5 2.21v.54c0 .198.079.39.22.53l1.5 1.5c.14.14.33.22.53.22h1.5a.75.75 0 0 0 .568.727l2.093.524-.332.663Z"/>
  </mask>
  <path stroke="#fff" stroke-width="2" d="m22.088 7.25.583-1.165a.75.75 0 0 0-.49-1.063l-2.431-.608V4.25A.75.75 0 0 0 19 3.5h-1.94L16 2.439v-1.19a.75.75 0 0 0-.932-.727l-3 .75a.75.75 0 0 0-.442.312l-.783 1.174-.172-.344A.751.751 0 0 0 9.47 2.22l-.4.4-3.292-1.316a.755.755 0 0 0-.516-.015l-2.25.75a.75.75 0 0 0-.474.949l.544 1.633-.918.459a.75.75 0 0 0-.414.67v1.037l-1.086.543A.75.75 0 0 0 .33 8.335l.75 1.5a.75.75 0 0 0 .67.415h3a.75.75 0 0 0 .531-.22l.625-.625 1.642-.547L9.69 11l-.97.97a.748.748 0 0 0-.14.194l-.75 1.5a.75.75 0 0 0 .14.866l.75.75c.141.14.332.22.53.22H10a.75.75 0 0 0 .531-.22l.97-.97.22.22a.751.751 0 0 0 1.201-.195l.079-.159v.574c0 .284.16.543.414.67l1.086.543v.287a.75.75 0 0 0 1.085.67l3-1.5a.75.75 0 0 0 .336-.335l.75-1.5a.75.75 0 0 0-1.007-1.006l-.829.414-.104-.208 3.155-1.892a.75.75 0 0 0 .285-.308l.542-1.085H22a.75.75 0 0 0 .67-1.086l-.582-1.164Zm-1.51-.336a.75.75 0 0 0 0 .671l.268.533a.75.75 0 0 0-.267.296l-.652 1.305-3.563 2.138a.75.75 0 0 0-.285.978l.75 1.5c.04.08.093.15.155.21l-1.103.55a.75.75 0 0 0-.296-.266l-1.085-.543v-.11l.67-1.341a.75.75 0 0 0-.67-1.085H13a.75.75 0 0 0-.671.414l-.285.57-.014-.015a.75.75 0 0 0-1.06 0L9.69 14h-.13l-.148-.147.454-.908 1.414-1.414a.75.75 0 0 0 0-1.06l-3-3a.747.747 0 0 0-.768-.182l-2.25.75a.753.753 0 0 0-.292.181l-.53.53H2.212l-.207-.414.83-.415a.75.75 0 0 0 .414-.67V6.213l1.085-.543a.75.75 0 0 0 .376-.908L4.2 3.224l1.277-.426 3.495 1.398a.75.75 0 0 0 .81-.166l.013-.014.285.569a.75.75 0 0 0 1.295.08l1.34-2.008L14.5 2.21v.54c0 .198.079.39.22.53l1.5 1.5c.14.14.33.22.53.22h1.5a.75.75 0 0 0 .568.727l2.093.524-.332.663Z" mask="url(#a)"/>
</svg>
